<?xml version="1.0" standalone="no"?>
<!DOCTYPE svg PUBLIC "-//W3C//DTD SVG 20010904//EN" "http://www.w3.org/TR/2001/REC-SVG-20010904/DTD/svg10.dtd">
<svg xmlns="http://www.w3.org/2000/svg" version="1.0" width="398.000000pt" height="188.000000pt" viewBox="0 0 398.000000 188.000000" preserveAspectRatio="xMidYMid meet">

<g transform="translate(0.000000,188.000000) scale(0.100000,-0.100000)" fill="#000000" stroke="none">
<path d="M1570 1165 c0 -124 10 -135 122 -135 77 0 78 0 78 25 0 24 -2 25 -70 25 -63 0 -70 2 -70 20 0 18 7 20 60 20 57 0 60 1 60 25 0 24 -3 25 -60 25 -53 0 -60 2 -60 20 0 18 7 20 70 20 68 0 70 1 70 25 l0 25 -100 0 -100 0 0 -95z"/>
<path d="M1820 1145 l0 -115 30 0 c28 0 30 2 30 40 0 36 3 40 24 40 18 0 31 -10 47 -40 18 -32 28 -40 51 -40 32 0 34 9 12 51 -14 28 -14 32 0 48 22 25 21 94 -2 114 -14 13 -39 17 -105 17 l-87 0 0 -115z m150 40 c0 -23 -4 -25 -45 -25 -41 0 -45 2 -45 25 0 23 4 25 45 25 41 0 45 -2 45 -25z"/>
<path d="M2080 1145 l0 -115 30 0 c28 0 30 2 30 40 0 35 3 40 23 40 15 0 30 -12 47 -40 19 -31 31 -40 52 -40 31 0 36 16 13 46 -19 25 -19 48 0 64 21 18 19 83 -3 103 -14 13 -39 17 -105 17 l-87 0 0 -115z m150 40 c0 -23 -4 -25 -45 -25 -41 0 -45 2 -45 25 0 23 4 25 45 25 41 0 45 -2 45 -25z"/>
<path d="M2330 1245 c0 -8 18 -44 40 -80 26 -43 40 -77 40 -100 0 -31 3 -35 25 -35 22 0 25 4 25 36 0 26 12 56 40 100 47 74 50 94 15 94 -18 0 -31 -11 -51 -45 -14 -25 -27 -45 -29 -45 -2 0 -15 20 -29 45 -20 34 -33 45 -51 45 -15 0 -25 -6 -25 -15z"/>
<path d="M2560 1240 c0 -11 7 -23 15 -26 8 -4 12 -11 9 -16 -4 -6 2 -8 12 -6 13 2 20 13 22 36 3 30 1 32 -27 32 -24 0 -31 -4 -31 -20z"/>
<path d="M2650 1145 l0 -115 88 0 c73 0 92 3 105 18 20 22 22 73 5 90 -9 9 -9 15 0 24 18 18 14 63 -6 81 -14 13 -39 17 -105 17 l-87 0 0 -115z m150 45 c0 -17 -7 -20 -45 -20 -38 0 -45 3 -45 20 0 17 7 20 45 20 38 0 45 -3 45 -20z m0 -90 c0 -17 -7 -20 -45 -20 -38 0 -45 3 -45 20 0 17 7 20 45 20 38 0 45 -3 45 -20z"/>
<path d="M2927 1242 c-25 -28 -24 -172 1 -195 27 -25 143 -24 165 1 21 23 24 181 5 200 -7 7 -41 12 -83 12 -57 0 -75 -4 -88 -18z m131 -94 l-3 -63 -42 -3 -43 -3 0 65 0 66 45 0 46 0 -3 -62z"/>
<path d="M3160 1145 l0 -115 88 0 c115 0 122 7 122 117 0 106 -7 113 -123 113 l-87 0 0 -115z m150 0 l0 -65 -45 0 -45 0 0 65 0 65 45 0 45 0 0 -65z"/>
<path d="M3410 1245 c0 -8 18 -44 40 -80 26 -43 40 -77 40 -100 0 -31 3 -35 25 -35 22 0 25 4 25 36 0 24 13 58 40 103 47 79 49 91 15 91 -19 0 -31 -9 -43 -31 -36 -65 -36 -65 -66 -15 -20 35 -33 46 -51 46 -15 0 -25 -6 -25 -15z"/>
<path d="M665 978 c-27 -5 -87 -27 -133 -48 -68 -32 -88 -37 -108 -30 -14 6 -45 10 -70 10 -39 0 -44 -2 -44 -23 0 -12 7 -33 16 -45 14 -20 14 -23 0 -28 -21 -8 -22 -87 -2 -103 19 -16 31 4 27 40 -1 19 5 32 21 43 19 14 21 19 10 36 -19 30 -15 33 34 27 39 -4 59 1 127 33 88 41 168 60 256 60 50 0 63 -5 122 -46 l66 -46 138 -13 c113 -10 141 -16 152 -31 17 -23 17 -45 -2 -71 -14 -20 -14 -23 3 -32 16 -9 22 -5 37 24 16 28 17 39 7 72 -6 21 -21 44 -33 51 -12 8 -81 20 -155 27 l-134 13 -64 46 c-64 46 -65 46 -143 45 -43 -1 -100 -6 -128 -11z"/>
<path d="M1577 903 c-4 -3 -7 -102 -7 -220 l0 -213 36 -40 36 -40 184 0 184 0 0 55 0 55 -150 0 -150 0 0 45 0 45 130 0 130 0 0 55 0 55 -130 0 -130 0 0 45 0 45 150 0 150 0 0 60 0 60 -213 0 c-118 0 -217 -3 -220 -7z"/>
<path d="M2162 867 l-42 -43 0 -217 0 -217 65 0 65 0 0 70 0 70 95 0 95 0 0 -70 0 -70 70 0 70 0 0 218 0 218 -43 42 -43 42 -145 0 -145 0 -42 -43z m278 -147 l0 -70 -95 0 -95 0 0 70 0 70 95 0 95 0 0 -70z"/>
<path d="M2650 850 l0 -60 75 0 75 0 0 -200 0 -200 65 0 65 0 0 200 0 199 78 3 77 3 0 55 0 55 -217 3 -218 2 0 -60z"/>
<path d="M3200 874 l-40 -36 0 -87 0 -87 38 -37 38 -37 127 0 127 0 0 -45 0 -45 -98 0 c-86 0 -101 3 -117 20 -13 15 -31 20 -67 20 l-48 0 0 -38 c0 -31 7 -45 38 -75 l38 -37 155 0 155 0 37 38 c36 37 37 39 37 118 0 79 0 80 -38 117 l-38 37 -127 0 -127 0 0 45 0 45 98 0 c86 0 101 -3 117 -20 13 -15 31 -20 67 -20 l48 0 0 44 c0 38 -5 48 -40 80 l-40 36 -150 0 -150 0 -40 -36z"/>
<path d="M456 789 c-72 -57 15 -167 91 -114 29 20 37 59 19 94 -24 46 -67 54 -110 20z m75 -40 c15 -28 -9 -54 -40 -44 -23 7 -28 34 -9 53 18 18 36 15 49 -9z"/>
<path d="M1094 782 c-23 -15 -34 -50 -24 -76 18 -48 76 -61 110 -24 40 43 14 108 -43 108 -18 0 -37 -4 -43 -8z m64 -55 c2 -9 -4 -20 -12 -23 -21 -8 -46 13 -39 32 8 20 47 13 51 -9z"/>
<path d="M600 690 c0 -19 7 -20 215 -20 208 0 215 1 215 20 0 19 -7 20 -215 20 -208 0 -215 -1 -215 -20z"/>
</g>
</svg>
